<?xml version="1.0" encoding="utf-8"?>
<!-- Generator: Adobe Illustrator 25.2.0, SVG Export Plug-In . SVG Version: 6.00 Build 0)  -->
<svg version="1.1" xmlns="http://www.w3.org/2000/svg" xmlns:xlink="http://www.w3.org/1999/xlink" x="0px" y="0px"
	 viewBox="0 0 612 792" style="enable-background:new 0 0 612 792;" xml:space="preserve">
<style type="text/css">
	.st0{fill:#2F4676;stroke:#2F4676;stroke-miterlimit:10;}
	.st1{display:none;}
	.st2{display:inline;stroke:#000000;stroke-miterlimit:10;}
</style>
<g id="Layer_1_small">
</g>
<g id="Layer_1_big">
	<path class="st0" d="M51.39,104.39c-1.28,2.02-1.66,4.41-0.31,7.14c2.43,4.93,8.08,6.99,13.07,8.17c2.08,0.49,4.19,0.89,6.31,1.21
		h42.2v-16.52H51.39z"/>
	<path class="st0" d="M114.9,104.39l-13.87,8.98l5.4,8.34c2.28,0.58,3.34,2.77,3.2,4.94l73.97,114.32l13.87-8.98L114.9,104.39z"/>
	<path class="st0" d="M182.96,225.7v17.07c0.44,0.68,0.88,1.37,1.31,2.06h274.39c0.25-0.94,0.53-1.86,0.83-2.78V225.7H182.96z"/>
	<path class="st0" d="M459.14,243.13l-10.14-4.3l-45.83,108.07l10.48,4.44l44.72-105.44C458.6,244.97,458.86,244.05,459.14,243.13z"
		/>
	<path class="st0" d="M193.71,240.21l-9.35,4.76c2.74,4.46,5.15,9.14,7.03,14.18c0.3,0.79,0.38,1.52,0.31,2.19l11.22,22.02
		c0.79,0.09,1.48,0.29,2.23,0.71c0.39,0.22,0.8,0.57,1.14,0.86c0.07,0.06,0.13,0.12,0.19,0.18c0.45,0.47,0.76,0.98,1.1,1.49
		c0.89,0.96,1.33,2.14,1.39,3.44c0.05,1.12-0.41,2.18-1.07,3.06l2.75,5.4c1.15,1.34,2.41,2.57,3.81,3.65
		c2.18,1.69,2.11,3.94,0.93,5.66l21.47,42.15l10.14-5.17L193.71,240.21z"/>
	<path class="st0" d="M415.48,354.39c-0.31-2.98,0.18-6.11,1.52-8.81v-0.76H237v10.43h178.63
		C415.57,354.98,415.51,354.69,415.48,354.39z"/>
	<circle class="st0" cx="248.3" cy="381.78" r="26.52"/>
	<circle class="st0" cx="404.8" cy="381.78" r="26.52"/>
	<rect x="259.61" y="273.52" class="st0" width="134.78" height="15.65"/>
	<rect x="274.83" y="309.17" class="st0" width="111.3" height="15.65"/>
</g>
<g id="Layer_1_big_copy" class="st1">
	<path class="st2" d="M36.17,104.39c-1.28,2.02-1.66,4.41-0.31,7.14c2.43,4.93,8.08,6.99,13.07,8.17c2.08,0.49,4.19,0.89,6.31,1.21
		h42.2v-16.52H36.17z"/>
	<path class="st2" d="M99.68,104.39l-13.87,8.98l5.4,8.34c2.28,0.58,3.34,2.77,3.2,4.94l73.97,114.32l13.87-8.98L99.68,104.39z"/>
	<path class="st2" d="M167.74,225.7v17.07c0.44,0.68,0.88,1.37,1.31,2.06h274.39c0.25-0.94,0.53-1.86,0.83-2.78V225.7H167.74z"/>
	<path class="st2" d="M443.92,243.13l-10.14-4.3l-45.83,108.07l10.48,4.44l44.72-105.44C443.38,244.97,443.64,244.05,443.92,243.13z
		"/>
	<path class="st2" d="M178.49,240.21l-9.35,4.76c2.74,4.46,5.15,9.14,7.03,14.18c0.3,0.79,0.38,1.52,0.31,2.19l11.22,22.02
		c0.79,0.09,1.48,0.29,2.23,0.71c0.39,0.22,0.8,0.57,1.14,0.86c0.07,0.06,0.13,0.12,0.19,0.18c0.45,0.47,0.76,0.98,1.1,1.49
		c0.89,0.96,1.33,2.14,1.39,3.44c0.05,1.12-0.41,2.18-1.07,3.06l2.75,5.4c1.15,1.34,2.41,2.57,3.81,3.65
		c2.18,1.69,2.11,3.94,0.93,5.66l21.47,42.15l10.14-5.17L178.49,240.21z"/>
	<path class="st2" d="M400.26,354.39c-0.31-2.98,0.18-6.11,1.52-8.81v-0.76h-180v10.43h178.63
		C400.35,354.98,400.29,354.69,400.26,354.39z"/>
	<circle class="st2" cx="233.09" cy="381.78" r="26.52"/>
	<circle class="st2" cx="389.59" cy="381.78" r="26.52"/>
	<rect x="232.73" y="245.73" class="st2" width="158.11" height="98.19"/>
	<polygon class="st2" points="260.04,351.35 216.13,337.04 206.57,291.86 240.91,260.98 284.82,275.29 294.39,320.47 	"/>
	<polygon class="st2" points="395.7,335.19 343.73,334.83 318.05,289.65 344.35,244.83 396.31,245.18 421.99,290.36 	"/>
	<path class="st2" d="M218.28,233.48l-34.31,7.45l-6.6,25.78c2.83,3.43,5.01,7.56,7.05,11.85l18.26,15.86l34.31-7.45l7.8-30.47
		L218.28,233.48z"/>
	<polygon class="st2" points="214.83,274.39 212.65,278.16 208.3,278.16 206.13,274.39 208.3,270.63 212.65,270.63 	"/>
	<polygon class="st2" points="407.22,282.47 388.71,262.87 392.92,236.24 415.64,229.21 434.15,248.81 429.94,275.44 	"/>
</g>
</svg>
